<svg width="168" height="43" viewBox="0 0 168 43" fill="none" xmlns="http://www.w3.org/2000/svg">
<path d="M0.0905762 0.345215V42.3337H45.4348V0.345215H0.0905762ZM35.185 13.1997C35.185 13.516 35.0662 13.8255 34.8434 14.0663L23.836 25.9922L17.8346 26.006L35.1404 7.65623L35.185 13.1997ZM11.0905 8.19957L27.6388 8.15143L23.6874 12.3331C23.628 12.395 23.5463 12.4294 23.4646 12.4294L11.0905 12.4638V8.19957ZM35.1924 35.0227H10.3404V30.7585H35.1924V35.0227Z" fill="#F5F5F5"/>
<path d="M96.1117 9.31369C91.165 9.31369 87.2136 10.531 84.5918 12.7044C83.6188 6.21871 77.8923 2.19525 69.2096 2.19525H53.1962V39.8301H61.7005V27.3746H69.0388C76.5182 27.3746 81.8214 24.4309 83.8416 19.4996H88.8922C89.1819 16.4803 91.7444 14.6439 95.7626 14.6439C99.7808 14.6439 102.284 16.6385 102.284 19.981V21.9205H95.9928C87.1988 21.9205 81.9625 25.4282 81.9625 31.57C81.9625 36.8521 86.0995 40.4698 92.3311 40.4698C96.639 40.4698 100.137 39.1767 102.403 36.3706L102.581 39.8232H110.328V20.4143C110.328 13.3509 104.794 9.30681 96.1191 9.30681L96.1117 9.31369ZM69.0388 20.9095H61.7005V8.66718H69.2096C73.4061 8.66718 76.0206 10.985 76.0206 14.7058C76.0206 18.4267 73.3393 20.9095 69.0314 20.9095H69.0388ZM102.284 30.0775C100.36 32.8836 97.7383 34.5549 94.2474 34.5549C91.3359 34.5549 89.8801 33.1519 89.8801 31.1573C89.8801 28.4613 92.0934 27.1682 95.822 27.1682H102.284V30.0775Z" fill="#F5F5F5"/>
<path d="M120.681 17.9454C120.681 15.9509 122.486 14.761 125.398 14.761C128.837 14.761 131.043 16.4323 131.221 19.3416H138.678C138.151 13.0347 133.553 9.3139 125.695 9.3139C117.837 9.3139 112.712 12.7115 112.712 18.4269C112.712 29.9677 131.228 25.8135 131.228 31.749C131.228 33.7986 129.305 35.0366 126.163 35.0366C121.914 35.0366 119.352 32.8288 119.463 29.1561H112.066C112.184 36.1645 117.48 40.4768 126.155 40.4768C134.251 40.4768 139.198 36.866 139.198 30.9856C139.198 18.7983 120.681 23.7571 120.681 17.9386V17.9454Z" fill="#F5F5F5"/>
<path d="M149.158 17.9454C149.158 15.9509 150.963 14.761 153.874 14.761C157.313 14.761 159.519 16.4323 159.697 19.3416H167.154C166.627 13.0347 162.03 9.3139 154.171 9.3139C146.313 9.3139 141.188 12.7115 141.188 18.4269C141.188 29.9677 159.705 25.8135 159.705 31.749C159.705 33.7986 157.781 35.0366 154.639 35.0366C150.391 35.0366 147.828 32.8288 147.94 29.1561H140.542C140.661 36.1645 145.957 40.4768 154.632 40.4768C162.728 40.4768 167.674 36.866 167.674 30.9856C167.674 18.7983 149.158 23.7571 149.158 17.9386V17.9454Z" fill="#F5F5F5"/>
</svg>
